<?xml version="1.0" encoding="UTF-8"?>
<mxfile host="app.diagrams.net"
        modified="2025-06-29T17:15:00.000Z"
        agent="5.0 (Android 15.0)"
        etag="gcp-basic-arch-v1"
        version="15.0.4"
        type="device"
        jgraphlibs="https://raw.githubusercontent.com/GoogleCloudPlatform/cloud-icons/master/drawio/gcp-icons.xml">
  <diagram id="gcp-basic-arch" name="GCP Basic 3-Tier">
    <mxGraphModel dx="1193" dy="611" grid="1" gridSize="10" guides="1"
                  tooltips="1" connect="1" arrows="1" fold="1" page="1"
                  pageScale="1" pageWidth="827" pageHeight="1169" math="0" shadow="0">
      <root>
        <!-- default root cells -->
        <mxCell id="0"/>
        <mxCell id="1" parent="0"/>

        <!-- Clients -->
        <mxCell id="2" value="Clients"
                style="shape=mxgraph.ost.actors.actor;html=1;"
                vertex="1" parent="1">
          <mxGeometry x="260" y="20" width="80" height="80" as="geometry"/>
        </mxCell>

        <!-- HTTPS Load Balancer -->
        <mxCell id="3" value="HTTPS LB"
                style="shape=HTTPS Load Balancer;html=1;
                       labelPosition=center;
                       verticalLabelPosition=bottom;
                       verticalAlign=top;"
                vertex="1" parent="1">
          <mxGeometry x="260" y="120" width="100" height="80" as="geometry"/>
        </mxCell>

        <!-- App Servers (Compute Engine) -->
        <mxCell id="4" value="App Servers"
                style="shape=Compute Engine;html=1;
                       labelPosition=center;
                       verticalLabelPosition=bottom;
                       verticalAlign=top;"
                vertex="1" parent="1">
          <mxGeometry x="260" y="240" width="100" height="80" as="geometry"/>
        </mxCell>

        <!-- Cloud SQL -->
        <mxCell id="5" value="Cloud SQL"
                style="shape=Cloud SQL;html=1;
                       labelPosition=center;
                       verticalLabelPosition=bottom;
                       verticalAlign=top;"
                vertex="1" parent="1">
          <mxGeometry x="400" y="240" width="100" height="80" as="geometry"/>
        </mxCell>

        <!-- Cloud Storage -->
        <mxCell id="6" value="Cloud Storage"
                style="shape=Cloud Storage;html=1;
                       labelPosition=center;
                       verticalLabelPosition=bottom;
                       verticalAlign=top;"
                vertex="1" parent="1">
          <mxGeometry x="120" y="240" width="100" height="80" as="geometry"/>
        </mxCell>

        <!-- Edges -->
        <mxCell id="7" style="edgeStyle=orthogonalEdgeStyle;
                              rounded=0;orthogonalLoop=1;
                              jettySize=auto;html=1;
                              exitX=0.5;exitY=1;exitPerimeter=1;
                              entryX=0.5;entryY=0;entryPerimeter=1;"
                edge="1" parent="1" source="2" target="3">
          <mxGeometry relative="1" as="geometry"/>
        </mxCell>

        <mxCell id="8" style="edgeStyle=orthogonalEdgeStyle;
                              rounded=0;orthogonalLoop=1;
                              jettySize=auto;html=1;
                              exitX=0.5;exitY=1;exitPerimeter=1;
                              entryX=0.5;entryY=0;entryPerimeter=1;"
                edge="1" parent="1" source="3" target="4">
          <mxGeometry relative="1" as="geometry"/>
        </mxCell>

        <mxCell id="9" style="edgeStyle=orthogonalEdgeStyle;
                              rounded=0;orthogonalLoop=1;
                              jettySize=auto;html=1;
                              exitX=1;exitY=0.5;exitPerimeter=1;
                              entryX=0;entryY=0.5;entryPerimeter=1;"
                edge="1" parent="1" source="4" target="5">
          <mxGeometry relative="1" as="geometry"/>
        </mxCell>

        <mxCell id="10" style="edgeStyle=orthogonalEdgeStyle;
                               rounded=0;orthogonalLoop=1;
                               jettySize=auto;html=1;
                               exitX=0;exitY=0.5;exitPerimeter=1;
                               entryX=1;entryY=0.5;entryPerimeter=1;"
                edge="1" parent="1" source="4" target="6">
          <mxGeometry relative="1" as="geometry"/>
        </mxCell>

      </root>
    </mxGraphModel>
  </diagram>
</mxfile>
